<mxfile host="app.diagrams.net" modified="2024-07-09T10:33:21.506Z" agent="Mozilla/5.0 (Windows NT 10.0; Win64; x64) AppleWebKit/537.36 (KHTML, like Gecko) Chrome/126.0.0.0 Safari/537.36" etag="U8hisfJd5He_KgfIn57u" version="24.6.4" type="device">
  <diagram id="R2lEEEUBdFMjLlhIrx00" name="Page-1">
    <mxGraphModel dx="838" dy="423" grid="1" gridSize="10" guides="1" tooltips="1" connect="1" arrows="1" fold="1" page="1" pageScale="1" pageWidth="850" pageHeight="1100" math="0" shadow="0" extFonts="Permanent Marker^https://fonts.googleapis.com/css?family=Permanent+Marker">
      <root>
        <mxCell id="0" />
        <mxCell id="1" parent="0" />
        <mxCell id="ORWHl0Uz2HMiyAtqklrK-9" value="" style="edgeStyle=orthogonalEdgeStyle;rounded=0;orthogonalLoop=1;jettySize=auto;html=1;" edge="1" parent="1" source="ORWHl0Uz2HMiyAtqklrK-1" target="ORWHl0Uz2HMiyAtqklrK-3">
          <mxGeometry relative="1" as="geometry" />
        </mxCell>
        <mxCell id="ORWHl0Uz2HMiyAtqklrK-1" value="HAS" style="rhombus;whiteSpace=wrap;html=1;" vertex="1" parent="1">
          <mxGeometry x="540" y="280" width="80" height="80" as="geometry" />
        </mxCell>
        <mxCell id="ORWHl0Uz2HMiyAtqklrK-11" value="" style="edgeStyle=orthogonalEdgeStyle;rounded=0;orthogonalLoop=1;jettySize=auto;html=1;endArrow=none;endFill=0;" edge="1" parent="1" source="ORWHl0Uz2HMiyAtqklrK-2" target="ORWHl0Uz2HMiyAtqklrK-1">
          <mxGeometry relative="1" as="geometry" />
        </mxCell>
        <mxCell id="ORWHl0Uz2HMiyAtqklrK-2" value="DOCTORS" style="rounded=0;whiteSpace=wrap;html=1;" vertex="1" parent="1">
          <mxGeometry x="380" y="290" width="120" height="60" as="geometry" />
        </mxCell>
        <mxCell id="ORWHl0Uz2HMiyAtqklrK-3" value="HOSPITAL" style="rounded=0;whiteSpace=wrap;html=1;" vertex="1" parent="1">
          <mxGeometry x="660" y="290" width="120" height="60" as="geometry" />
        </mxCell>
        <mxCell id="ORWHl0Uz2HMiyAtqklrK-26" style="edgeStyle=orthogonalEdgeStyle;rounded=0;orthogonalLoop=1;jettySize=auto;html=1;exitX=1;exitY=0.5;exitDx=0;exitDy=0;entryX=0;entryY=0;entryDx=0;entryDy=0;endArrow=none;endFill=0;" edge="1" parent="1" source="ORWHl0Uz2HMiyAtqklrK-5" target="ORWHl0Uz2HMiyAtqklrK-24">
          <mxGeometry relative="1" as="geometry" />
        </mxCell>
        <mxCell id="ORWHl0Uz2HMiyAtqklrK-5" value="PATIENT" style="rounded=0;whiteSpace=wrap;html=1;" vertex="1" parent="1">
          <mxGeometry x="380" y="520" width="120" height="60" as="geometry" />
        </mxCell>
        <mxCell id="ORWHl0Uz2HMiyAtqklrK-12" value="" style="edgeStyle=orthogonalEdgeStyle;rounded=0;orthogonalLoop=1;jettySize=auto;html=1;endArrow=none;endFill=0;" edge="1" parent="1" source="ORWHl0Uz2HMiyAtqklrK-6" target="ORWHl0Uz2HMiyAtqklrK-2">
          <mxGeometry relative="1" as="geometry" />
        </mxCell>
        <mxCell id="ORWHl0Uz2HMiyAtqklrK-21" style="edgeStyle=orthogonalEdgeStyle;rounded=0;orthogonalLoop=1;jettySize=auto;html=1;exitX=0.5;exitY=1;exitDx=0;exitDy=0;entryX=0.5;entryY=0;entryDx=0;entryDy=0;endArrow=none;endFill=0;" edge="1" parent="1" source="ORWHl0Uz2HMiyAtqklrK-6" target="ORWHl0Uz2HMiyAtqklrK-5">
          <mxGeometry relative="1" as="geometry" />
        </mxCell>
        <mxCell id="ORWHl0Uz2HMiyAtqklrK-6" value="ARE ADMITTED BY" style="rhombus;whiteSpace=wrap;html=1;" vertex="1" parent="1">
          <mxGeometry x="400" y="400" width="80" height="80" as="geometry" />
        </mxCell>
        <mxCell id="ORWHl0Uz2HMiyAtqklrK-19" style="edgeStyle=orthogonalEdgeStyle;rounded=0;orthogonalLoop=1;jettySize=auto;html=1;exitX=1;exitY=0.5;exitDx=0;exitDy=0;entryX=0;entryY=0.5;entryDx=0;entryDy=0;endArrow=none;endFill=0;" edge="1" parent="1" source="ORWHl0Uz2HMiyAtqklrK-13" target="ORWHl0Uz2HMiyAtqklrK-2">
          <mxGeometry relative="1" as="geometry">
            <Array as="points">
              <mxPoint x="320" y="380" />
              <mxPoint x="320" y="320" />
            </Array>
          </mxGeometry>
        </mxCell>
        <mxCell id="ORWHl0Uz2HMiyAtqklrK-13" value="DATE OF EMPLOY" style="ellipse;whiteSpace=wrap;html=1;" vertex="1" parent="1">
          <mxGeometry x="170" y="340" width="120" height="80" as="geometry" />
        </mxCell>
        <mxCell id="ORWHl0Uz2HMiyAtqklrK-18" style="edgeStyle=orthogonalEdgeStyle;rounded=0;orthogonalLoop=1;jettySize=auto;html=1;exitX=1;exitY=0.5;exitDx=0;exitDy=0;entryX=0;entryY=0.25;entryDx=0;entryDy=0;endArrow=none;endFill=0;" edge="1" parent="1" source="ORWHl0Uz2HMiyAtqklrK-14" target="ORWHl0Uz2HMiyAtqklrK-2">
          <mxGeometry relative="1" as="geometry" />
        </mxCell>
        <mxCell id="ORWHl0Uz2HMiyAtqklrK-14" value="NAME" style="ellipse;whiteSpace=wrap;html=1;" vertex="1" parent="1">
          <mxGeometry x="170" y="240" width="120" height="80" as="geometry" />
        </mxCell>
        <mxCell id="ORWHl0Uz2HMiyAtqklrK-17" style="edgeStyle=orthogonalEdgeStyle;rounded=0;orthogonalLoop=1;jettySize=auto;html=1;exitX=1;exitY=1;exitDx=0;exitDy=0;entryX=0.25;entryY=0;entryDx=0;entryDy=0;endArrow=none;endFill=0;" edge="1" parent="1" source="ORWHl0Uz2HMiyAtqklrK-15" target="ORWHl0Uz2HMiyAtqklrK-2">
          <mxGeometry relative="1" as="geometry" />
        </mxCell>
        <mxCell id="ORWHl0Uz2HMiyAtqklrK-15" value="ID" style="ellipse;whiteSpace=wrap;html=1;" vertex="1" parent="1">
          <mxGeometry x="170" y="140" width="120" height="80" as="geometry" />
        </mxCell>
        <mxCell id="ORWHl0Uz2HMiyAtqklrK-20" style="edgeStyle=orthogonalEdgeStyle;rounded=0;orthogonalLoop=1;jettySize=auto;html=1;exitX=1;exitY=0.5;exitDx=0;exitDy=0;entryX=0;entryY=0.75;entryDx=0;entryDy=0;endArrow=none;endFill=0;" edge="1" parent="1" source="ORWHl0Uz2HMiyAtqklrK-16" target="ORWHl0Uz2HMiyAtqklrK-2">
          <mxGeometry relative="1" as="geometry" />
        </mxCell>
        <mxCell id="ORWHl0Uz2HMiyAtqklrK-16" value="SPECIALY" style="ellipse;whiteSpace=wrap;html=1;" vertex="1" parent="1">
          <mxGeometry x="170" y="440" width="120" height="80" as="geometry" />
        </mxCell>
        <mxCell id="ORWHl0Uz2HMiyAtqklrK-27" style="edgeStyle=orthogonalEdgeStyle;rounded=0;orthogonalLoop=1;jettySize=auto;html=1;exitX=1;exitY=0;exitDx=0;exitDy=0;entryX=0;entryY=0.5;entryDx=0;entryDy=0;endArrow=none;endFill=0;" edge="1" parent="1" source="ORWHl0Uz2HMiyAtqklrK-22" target="ORWHl0Uz2HMiyAtqklrK-5">
          <mxGeometry relative="1" as="geometry" />
        </mxCell>
        <mxCell id="ORWHl0Uz2HMiyAtqklrK-22" value="DATE" style="ellipse;whiteSpace=wrap;html=1;" vertex="1" parent="1">
          <mxGeometry x="190" y="610" width="120" height="80" as="geometry" />
        </mxCell>
        <mxCell id="ORWHl0Uz2HMiyAtqklrK-25" value="" style="edgeStyle=orthogonalEdgeStyle;rounded=0;orthogonalLoop=1;jettySize=auto;html=1;endArrow=none;endFill=0;" edge="1" parent="1" source="ORWHl0Uz2HMiyAtqklrK-23" target="ORWHl0Uz2HMiyAtqklrK-5">
          <mxGeometry relative="1" as="geometry" />
        </mxCell>
        <mxCell id="ORWHl0Uz2HMiyAtqklrK-23" value="DURATION" style="ellipse;whiteSpace=wrap;html=1;" vertex="1" parent="1">
          <mxGeometry x="370" y="610" width="120" height="80" as="geometry" />
        </mxCell>
        <mxCell id="ORWHl0Uz2HMiyAtqklrK-24" value="RESULT" style="ellipse;whiteSpace=wrap;html=1;" vertex="1" parent="1">
          <mxGeometry x="540" y="610" width="120" height="80" as="geometry" />
        </mxCell>
        <mxCell id="ORWHl0Uz2HMiyAtqklrK-29" style="edgeStyle=orthogonalEdgeStyle;rounded=0;orthogonalLoop=1;jettySize=auto;html=1;exitX=0;exitY=0.5;exitDx=0;exitDy=0;entryX=1;entryY=0.25;entryDx=0;entryDy=0;endArrow=none;endFill=0;shape=link;" edge="1" parent="1" source="ORWHl0Uz2HMiyAtqklrK-28" target="ORWHl0Uz2HMiyAtqklrK-5">
          <mxGeometry relative="1" as="geometry" />
        </mxCell>
        <mxCell id="ORWHl0Uz2HMiyAtqklrK-31" value="" style="edgeStyle=orthogonalEdgeStyle;rounded=0;orthogonalLoop=1;jettySize=auto;html=1;" edge="1" parent="1" source="ORWHl0Uz2HMiyAtqklrK-28" target="ORWHl0Uz2HMiyAtqklrK-3">
          <mxGeometry relative="1" as="geometry" />
        </mxCell>
        <mxCell id="ORWHl0Uz2HMiyAtqklrK-28" value="SAVE" style="rhombus;whiteSpace=wrap;html=1;" vertex="1" parent="1">
          <mxGeometry x="690" y="420" width="80" height="80" as="geometry" />
        </mxCell>
        <mxCell id="ORWHl0Uz2HMiyAtqklrK-33" style="edgeStyle=orthogonalEdgeStyle;rounded=0;orthogonalLoop=1;jettySize=auto;html=1;exitX=0.5;exitY=0;exitDx=0;exitDy=0;entryX=0.75;entryY=1;entryDx=0;entryDy=0;endArrow=none;endFill=0;" edge="1" parent="1" source="ORWHl0Uz2HMiyAtqklrK-32" target="ORWHl0Uz2HMiyAtqklrK-2">
          <mxGeometry relative="1" as="geometry" />
        </mxCell>
        <mxCell id="ORWHl0Uz2HMiyAtqklrK-34" style="edgeStyle=orthogonalEdgeStyle;rounded=0;orthogonalLoop=1;jettySize=auto;html=1;exitX=0.5;exitY=1;exitDx=0;exitDy=0;entryX=0.75;entryY=0;entryDx=0;entryDy=0;endArrow=none;endFill=0;" edge="1" parent="1" source="ORWHl0Uz2HMiyAtqklrK-32" target="ORWHl0Uz2HMiyAtqklrK-5">
          <mxGeometry relative="1" as="geometry" />
        </mxCell>
        <mxCell id="ORWHl0Uz2HMiyAtqklrK-32" value="TREAT" style="rhombus;whiteSpace=wrap;html=1;" vertex="1" parent="1">
          <mxGeometry x="490" y="400" width="80" height="80" as="geometry" />
        </mxCell>
      </root>
    </mxGraphModel>
  </diagram>
</mxfile>
